M48
; DRILL file {KiCad (5.1.5)-3} date 01/04/2020 23:32:04
; FORMAT={-:-/ absolute / inch / decimal}
; #@! TF.CreationDate,2020-04-01T23:32:04-03:00
; #@! TF.GenerationSoftware,Kicad,Pcbnew,(5.1.5)-3
; #@! TF.FileFunction,Plated,1,2,PTH
FMAT,2
INCH
T1C0.0118
T2C0.0394
%
G90
G05
T1
X5.2425Y-4.0409
X5.276Y-3.972
X5.3094Y-3.8717
X5.3252Y-4.0016
X5.3361Y-4.1278
X5.339Y-4.3028
X5.3606Y-3.6256
X5.3639Y-4.1106
X5.3685Y-4.3874
X5.3841Y-3.8507
X5.3876Y-4.0699
X5.3921Y-3.4622
X5.4266Y-4.037
X5.4315Y-3.8854
X5.4354Y-3.9287
X5.4591Y-3.6295
X5.4625Y-3.8555
X5.463Y-3.5921
X5.463Y-4.0508
X5.4846Y-4.2496
X5.4846Y-3.9425
X5.5083Y-4.1787
X5.5105Y-4.0906
X5.5142Y-3.7929
X5.5555Y-3.6846
X5.5614Y-3.5075
X5.5634Y-3.9799
X5.5732Y-3.8736
X5.5752Y-3.8165
X5.589Y-3.7043
X5.5929Y-4.2024
X5.6008Y-4.098
X5.6098Y-3.7425
X5.6303Y-4.222
X5.6362Y-3.9051
X5.6382Y-3.9524
X5.652Y-4.123
X5.6665Y-3.7759
X5.6717Y-4.2004
X5.6953Y-3.722
X5.7091Y-4.0272
X5.711Y-4.2161
X5.7189Y-3.8146
X5.7209Y-3.974
X5.7268Y-3.8776
X5.754Y-3.8618
X5.7556Y-4.1301
X5.7622Y-4.1709
X5.7723Y-3.3916
X5.774Y-4.3835
X5.8035Y-3.6217
X5.8222Y-3.9081
X5.8252Y-3.8303
X5.8252Y-3.8618
X5.8252Y-4.3972
X5.8606Y-3.7201
X5.8606Y-4.2063
X5.8614Y-4.0854
X5.8744Y-4.2831
X5.8811Y-4.1377
X5.9118Y-3.9878
X5.9157Y-3.8717
X5.961Y-3.4839
X5.9709Y-4.1984
X5.9807Y-4.0626
X5.9906Y-4.3953
X5.9945Y-4.1315
X6.0004Y-3.7719
X6.0053Y-4.286
X6.0122Y-4.0724
X6.0634Y-4.5252
X6.0654Y-4.0252
X6.0672Y-3.9802
X6.0755Y-4.4925
X6.0811Y-4.2004
X6.0988Y-3.8205
X6.1087Y-3.7201
X6.1106Y-4.1276
X6.1113Y-4.318
X6.1579Y-3.7535
X6.1657Y-3.8874
X6.1697Y-3.9406
X6.1717Y-3.5606
X6.1913Y-4.165
X6.1933Y-4.0528
X6.1992Y-4.1059
X6.215Y-4.2299
X6.2406Y-3.9307
X6.2681Y-3.8835
X6.276Y-4.3618
X6.2819Y-3.4799
X6.3114Y-4.4091
X6.3764Y-3.9819
T2
X6.1606Y-4.5075
X6.2606Y-4.5075
X6.3606Y-4.5075
X5.278Y-4.5075
X5.378Y-4.5075
X5.478Y-4.5075
X5.278Y-3.4248
X5.278Y-3.5248
X5.278Y-3.6248
X6.1606Y-3.4248
X6.2606Y-3.4248
X6.3606Y-3.4248
T0
M30
