G04 #@! TF.GenerationSoftware,KiCad,Pcbnew,(5.1.5)-3*
G04 #@! TF.CreationDate,2020-04-01T23:32:00-03:00*
G04 #@! TF.ProjectId,LDDH200324A,4c444448-3230-4303-9332-34412e6b6963,rev?*
G04 #@! TF.SameCoordinates,Original*
G04 #@! TF.FileFunction,Soldermask,Bot*
G04 #@! TF.FilePolarity,Negative*
%FSLAX45Y45*%
G04 Gerber Fmt 4.5, Leading zero omitted, Abs format (unit mm)*
G04 Created by KiCad (PCBNEW (5.1.5)-3) date 2020-04-01 23:32:00*
%MOMM*%
%LPD*%
G04 APERTURE LIST*
%ADD10C,0.050000*%
%ADD11C,0.100000*%
G04 APERTURE END LIST*
D10*
X16306000Y-8549000D02*
X13256000Y-8549000D01*
X13256000Y-8549000D02*
X13256000Y-11599000D01*
X16306000Y-11599000D02*
X16306000Y-8549000D01*
X13256000Y-11599000D02*
X16306000Y-11599000D01*
D11*
G36*
X15913351Y-11359393D02*
G01*
X15928281Y-11362362D01*
X15944678Y-11369154D01*
X15959435Y-11379015D01*
X15971985Y-11391565D01*
X15981846Y-11406322D01*
X15988638Y-11422719D01*
X15992100Y-11440126D01*
X15992100Y-11457874D01*
X15988638Y-11475281D01*
X15981846Y-11491678D01*
X15971985Y-11506435D01*
X15959435Y-11518985D01*
X15944678Y-11528846D01*
X15928281Y-11535638D01*
X15913351Y-11538607D01*
X15910874Y-11539100D01*
X15893126Y-11539100D01*
X15890649Y-11538607D01*
X15875719Y-11535638D01*
X15859322Y-11528846D01*
X15844565Y-11518985D01*
X15832015Y-11506435D01*
X15822154Y-11491678D01*
X15815362Y-11475281D01*
X15811900Y-11457874D01*
X15811900Y-11440126D01*
X15815362Y-11422719D01*
X15822154Y-11406322D01*
X15832015Y-11391565D01*
X15844565Y-11379015D01*
X15859322Y-11369154D01*
X15875719Y-11362362D01*
X15890649Y-11359393D01*
X15893126Y-11358900D01*
X15910874Y-11358900D01*
X15913351Y-11359393D01*
G37*
G36*
X16246100Y-11539100D02*
G01*
X16065900Y-11539100D01*
X16065900Y-11358900D01*
X16246100Y-11358900D01*
X16246100Y-11539100D01*
G37*
G36*
X15659351Y-11359393D02*
G01*
X15674281Y-11362362D01*
X15690678Y-11369154D01*
X15705435Y-11379015D01*
X15717985Y-11391565D01*
X15727846Y-11406322D01*
X15734638Y-11422719D01*
X15738100Y-11440126D01*
X15738100Y-11457874D01*
X15734638Y-11475281D01*
X15727846Y-11491678D01*
X15717985Y-11506435D01*
X15705435Y-11518985D01*
X15690678Y-11528846D01*
X15674281Y-11535638D01*
X15659351Y-11538607D01*
X15656874Y-11539100D01*
X15639126Y-11539100D01*
X15636649Y-11538607D01*
X15621719Y-11535638D01*
X15605322Y-11528846D01*
X15590565Y-11518985D01*
X15578015Y-11506435D01*
X15568154Y-11491678D01*
X15561362Y-11475281D01*
X15557900Y-11457874D01*
X15557900Y-11440126D01*
X15561362Y-11422719D01*
X15568154Y-11406322D01*
X15578015Y-11391565D01*
X15590565Y-11379015D01*
X15605322Y-11369154D01*
X15621719Y-11362362D01*
X15636649Y-11359393D01*
X15639126Y-11358900D01*
X15656874Y-11358900D01*
X15659351Y-11359393D01*
G37*
G36*
X13496100Y-11539100D02*
G01*
X13315900Y-11539100D01*
X13315900Y-11358900D01*
X13496100Y-11358900D01*
X13496100Y-11539100D01*
G37*
G36*
X13671351Y-11359393D02*
G01*
X13686281Y-11362362D01*
X13702678Y-11369154D01*
X13717435Y-11379015D01*
X13729985Y-11391565D01*
X13739846Y-11406322D01*
X13746638Y-11422719D01*
X13750100Y-11440126D01*
X13750100Y-11457874D01*
X13746638Y-11475281D01*
X13739846Y-11491678D01*
X13729985Y-11506435D01*
X13717435Y-11518985D01*
X13702678Y-11528846D01*
X13686281Y-11535638D01*
X13671351Y-11538607D01*
X13668874Y-11539100D01*
X13651126Y-11539100D01*
X13648649Y-11538607D01*
X13633719Y-11535638D01*
X13617322Y-11528846D01*
X13602565Y-11518985D01*
X13590015Y-11506435D01*
X13580154Y-11491678D01*
X13573362Y-11475281D01*
X13569900Y-11457874D01*
X13569900Y-11440126D01*
X13573362Y-11422719D01*
X13580154Y-11406322D01*
X13590015Y-11391565D01*
X13602565Y-11379015D01*
X13617322Y-11369154D01*
X13633719Y-11362362D01*
X13648649Y-11359393D01*
X13651126Y-11358900D01*
X13668874Y-11358900D01*
X13671351Y-11359393D01*
G37*
G36*
X13925351Y-11359393D02*
G01*
X13940281Y-11362362D01*
X13956678Y-11369154D01*
X13971435Y-11379015D01*
X13983985Y-11391565D01*
X13993846Y-11406322D01*
X14000638Y-11422719D01*
X14004100Y-11440126D01*
X14004100Y-11457874D01*
X14000638Y-11475281D01*
X13993846Y-11491678D01*
X13983985Y-11506435D01*
X13971435Y-11518985D01*
X13956678Y-11528846D01*
X13940281Y-11535638D01*
X13925351Y-11538607D01*
X13922874Y-11539100D01*
X13905126Y-11539100D01*
X13902649Y-11538607D01*
X13887719Y-11535638D01*
X13871322Y-11528846D01*
X13856565Y-11518985D01*
X13844015Y-11506435D01*
X13834154Y-11491678D01*
X13827362Y-11475281D01*
X13823900Y-11457874D01*
X13823900Y-11440126D01*
X13827362Y-11422719D01*
X13834154Y-11406322D01*
X13844015Y-11391565D01*
X13856565Y-11379015D01*
X13871322Y-11369154D01*
X13887719Y-11362362D01*
X13902649Y-11359393D01*
X13905126Y-11358900D01*
X13922874Y-11358900D01*
X13925351Y-11359393D01*
G37*
G36*
X13417351Y-9117393D02*
G01*
X13432281Y-9120362D01*
X13448678Y-9127154D01*
X13463435Y-9137015D01*
X13475985Y-9149565D01*
X13485846Y-9164322D01*
X13492638Y-9180719D01*
X13496100Y-9198126D01*
X13496100Y-9215874D01*
X13492638Y-9233281D01*
X13485846Y-9249678D01*
X13475985Y-9264435D01*
X13463435Y-9276985D01*
X13448678Y-9286846D01*
X13432281Y-9293638D01*
X13417351Y-9296607D01*
X13414874Y-9297100D01*
X13397126Y-9297100D01*
X13394649Y-9296607D01*
X13379719Y-9293638D01*
X13363322Y-9286846D01*
X13348565Y-9276985D01*
X13336015Y-9264435D01*
X13326154Y-9249678D01*
X13319362Y-9233281D01*
X13315900Y-9215874D01*
X13315900Y-9198126D01*
X13319362Y-9180719D01*
X13326154Y-9164322D01*
X13336015Y-9149565D01*
X13348565Y-9137015D01*
X13363322Y-9127154D01*
X13379719Y-9120362D01*
X13394649Y-9117393D01*
X13397126Y-9116900D01*
X13414874Y-9116900D01*
X13417351Y-9117393D01*
G37*
G36*
X13417351Y-8863393D02*
G01*
X13432281Y-8866362D01*
X13448678Y-8873154D01*
X13463435Y-8883015D01*
X13475985Y-8895565D01*
X13485846Y-8910322D01*
X13492638Y-8926719D01*
X13496100Y-8944126D01*
X13496100Y-8961874D01*
X13492638Y-8979281D01*
X13485846Y-8995678D01*
X13475985Y-9010435D01*
X13463435Y-9022985D01*
X13448678Y-9032846D01*
X13432281Y-9039638D01*
X13417351Y-9042607D01*
X13414874Y-9043100D01*
X13397126Y-9043100D01*
X13394649Y-9042607D01*
X13379719Y-9039638D01*
X13363322Y-9032846D01*
X13348565Y-9022985D01*
X13336015Y-9010435D01*
X13326154Y-8995678D01*
X13319362Y-8979281D01*
X13315900Y-8961874D01*
X13315900Y-8944126D01*
X13319362Y-8926719D01*
X13326154Y-8910322D01*
X13336015Y-8895565D01*
X13348565Y-8883015D01*
X13363322Y-8873154D01*
X13379719Y-8866362D01*
X13394649Y-8863393D01*
X13397126Y-8862900D01*
X13414874Y-8862900D01*
X13417351Y-8863393D01*
G37*
G36*
X13496100Y-8789100D02*
G01*
X13315900Y-8789100D01*
X13315900Y-8608900D01*
X13496100Y-8608900D01*
X13496100Y-8789100D01*
G37*
G36*
X16246100Y-8789100D02*
G01*
X16065900Y-8789100D01*
X16065900Y-8608900D01*
X16246100Y-8608900D01*
X16246100Y-8789100D01*
G37*
G36*
X15913351Y-8609393D02*
G01*
X15928281Y-8612362D01*
X15944678Y-8619154D01*
X15959435Y-8629015D01*
X15971985Y-8641565D01*
X15981846Y-8656322D01*
X15988638Y-8672719D01*
X15992100Y-8690126D01*
X15992100Y-8707874D01*
X15988638Y-8725281D01*
X15981846Y-8741678D01*
X15971985Y-8756435D01*
X15959435Y-8768985D01*
X15944678Y-8778846D01*
X15928281Y-8785638D01*
X15913351Y-8788607D01*
X15910874Y-8789100D01*
X15893126Y-8789100D01*
X15890649Y-8788607D01*
X15875719Y-8785638D01*
X15859322Y-8778846D01*
X15844565Y-8768985D01*
X15832015Y-8756435D01*
X15822154Y-8741678D01*
X15815362Y-8725281D01*
X15811900Y-8707874D01*
X15811900Y-8690126D01*
X15815362Y-8672719D01*
X15822154Y-8656322D01*
X15832015Y-8641565D01*
X15844565Y-8629015D01*
X15859322Y-8619154D01*
X15875719Y-8612362D01*
X15890649Y-8609393D01*
X15893126Y-8608900D01*
X15910874Y-8608900D01*
X15913351Y-8609393D01*
G37*
G36*
X15659351Y-8609393D02*
G01*
X15674281Y-8612362D01*
X15690678Y-8619154D01*
X15705435Y-8629015D01*
X15717985Y-8641565D01*
X15727846Y-8656322D01*
X15734638Y-8672719D01*
X15738100Y-8690126D01*
X15738100Y-8707874D01*
X15734638Y-8725281D01*
X15727846Y-8741678D01*
X15717985Y-8756435D01*
X15705435Y-8768985D01*
X15690678Y-8778846D01*
X15674281Y-8785638D01*
X15659351Y-8788607D01*
X15656874Y-8789100D01*
X15639126Y-8789100D01*
X15636649Y-8788607D01*
X15621719Y-8785638D01*
X15605322Y-8778846D01*
X15590565Y-8768985D01*
X15578015Y-8756435D01*
X15568154Y-8741678D01*
X15561362Y-8725281D01*
X15557900Y-8707874D01*
X15557900Y-8690126D01*
X15561362Y-8672719D01*
X15568154Y-8656322D01*
X15578015Y-8641565D01*
X15590565Y-8629015D01*
X15605322Y-8619154D01*
X15621719Y-8612362D01*
X15636649Y-8609393D01*
X15639126Y-8608900D01*
X15656874Y-8608900D01*
X15659351Y-8609393D01*
G37*
M02*
