G04 #@! TF.GenerationSoftware,KiCad,Pcbnew,(5.1.5)-3*
G04 #@! TF.CreationDate,2020-04-01T23:32:00-03:00*
G04 #@! TF.ProjectId,LDDH200324A,4c444448-3230-4303-9332-34412e6b6963,rev?*
G04 #@! TF.SameCoordinates,Original*
G04 #@! TF.FileFunction,Legend,Bot*
G04 #@! TF.FilePolarity,Positive*
%FSLAX45Y45*%
G04 Gerber Fmt 4.5, Leading zero omitted, Abs format (unit mm)*
G04 Created by KiCad (PCBNEW (5.1.5)-3) date 2020-04-01 23:32:00*
%MOMM*%
%LPD*%
G04 APERTURE LIST*
%ADD10C,0.375000*%
%ADD11C,0.200000*%
%ADD12C,0.275000*%
%ADD13C,0.050000*%
%ADD14C,0.120000*%
%ADD15O,1.802000X1.802000*%
%ADD16R,1.802000X1.802000*%
G04 APERTURE END LIST*
D10*
X16085286Y-9381857D02*
X16085286Y-9231857D01*
X16028143Y-9231857D01*
X16013857Y-9239000D01*
X16006714Y-9246143D01*
X15999571Y-9260429D01*
X15999571Y-9281857D01*
X16006714Y-9296143D01*
X16013857Y-9303286D01*
X16028143Y-9310429D01*
X16085286Y-9310429D01*
D11*
X16214114Y-9299000D02*
G75*
G03X16214114Y-9299000I-158114J0D01*
G01*
D10*
X15795911Y-9266857D02*
X15795911Y-9116857D01*
X15795911Y-9188286D02*
X15710196Y-9188286D01*
X15710196Y-9266857D02*
X15710196Y-9116857D01*
X15638768Y-9252571D02*
X15631625Y-9259714D01*
X15638768Y-9266857D01*
X15645911Y-9259714D01*
X15638768Y-9252571D01*
X15638768Y-9266857D01*
X15538768Y-9116857D02*
X15510196Y-9116857D01*
X15495911Y-9124000D01*
X15481625Y-9138286D01*
X15474482Y-9166857D01*
X15474482Y-9216857D01*
X15481625Y-9245429D01*
X15495911Y-9259714D01*
X15510196Y-9266857D01*
X15538768Y-9266857D01*
X15553053Y-9259714D01*
X15567339Y-9245429D01*
X15574482Y-9216857D01*
X15574482Y-9166857D01*
X15567339Y-9138286D01*
X15553053Y-9124000D01*
X15538768Y-9116857D01*
X15410196Y-9266857D02*
X15410196Y-9166857D01*
X15410196Y-9195429D02*
X15403053Y-9181143D01*
X15395911Y-9174000D01*
X15381625Y-9166857D01*
X15367339Y-9166857D01*
X15295911Y-9266857D02*
X15310196Y-9259714D01*
X15317339Y-9245429D01*
X15317339Y-9116857D01*
X15217339Y-9266857D02*
X15231625Y-9259714D01*
X15238768Y-9252571D01*
X15245911Y-9238286D01*
X15245911Y-9195429D01*
X15238768Y-9181143D01*
X15231625Y-9174000D01*
X15217339Y-9166857D01*
X15195911Y-9166857D01*
X15181625Y-9174000D01*
X15174482Y-9181143D01*
X15167339Y-9195429D01*
X15167339Y-9238286D01*
X15174482Y-9252571D01*
X15181625Y-9259714D01*
X15195911Y-9266857D01*
X15217339Y-9266857D01*
X15103053Y-9166857D02*
X15103053Y-9295429D01*
X15110196Y-9309714D01*
X15124482Y-9316857D01*
X15131625Y-9316857D01*
X15103053Y-9116857D02*
X15110196Y-9124000D01*
X15103053Y-9131143D01*
X15095911Y-9124000D01*
X15103053Y-9116857D01*
X15103053Y-9131143D01*
X14917339Y-9266857D02*
X14917339Y-9116857D01*
X14881625Y-9116857D01*
X14860196Y-9124000D01*
X14845911Y-9138286D01*
X14838768Y-9152571D01*
X14831625Y-9181143D01*
X14831625Y-9202571D01*
X14838768Y-9231143D01*
X14845911Y-9245429D01*
X14860196Y-9259714D01*
X14881625Y-9266857D01*
X14917339Y-9266857D01*
X14767339Y-9266857D02*
X14767339Y-9166857D01*
X14767339Y-9116857D02*
X14774482Y-9124000D01*
X14767339Y-9131143D01*
X14760196Y-9124000D01*
X14767339Y-9116857D01*
X14767339Y-9131143D01*
X14703053Y-9259714D02*
X14688768Y-9266857D01*
X14660196Y-9266857D01*
X14645911Y-9259714D01*
X14638768Y-9245429D01*
X14638768Y-9238286D01*
X14645911Y-9224000D01*
X14660196Y-9216857D01*
X14681625Y-9216857D01*
X14695911Y-9209714D01*
X14703053Y-9195429D01*
X14703053Y-9188286D01*
X14695911Y-9174000D01*
X14681625Y-9166857D01*
X14660196Y-9166857D01*
X14645911Y-9174000D01*
X14574482Y-9166857D02*
X14574482Y-9316857D01*
X14574482Y-9174000D02*
X14560196Y-9166857D01*
X14531625Y-9166857D01*
X14517339Y-9174000D01*
X14510196Y-9181143D01*
X14503053Y-9195429D01*
X14503053Y-9238286D01*
X14510196Y-9252571D01*
X14517339Y-9259714D01*
X14531625Y-9266857D01*
X14560196Y-9266857D01*
X14574482Y-9259714D01*
X14417339Y-9266857D02*
X14431625Y-9259714D01*
X14438768Y-9245429D01*
X14438768Y-9116857D01*
X14295911Y-9266857D02*
X14295911Y-9188286D01*
X14303053Y-9174000D01*
X14317339Y-9166857D01*
X14345911Y-9166857D01*
X14360196Y-9174000D01*
X14295911Y-9259714D02*
X14310196Y-9266857D01*
X14345911Y-9266857D01*
X14360196Y-9259714D01*
X14367339Y-9245429D01*
X14367339Y-9231143D01*
X14360196Y-9216857D01*
X14345911Y-9209714D01*
X14310196Y-9209714D01*
X14295911Y-9202571D01*
X14238768Y-9166857D02*
X14203053Y-9266857D01*
X14167339Y-9166857D02*
X14203053Y-9266857D01*
X14217339Y-9302571D01*
X14224482Y-9309714D01*
X14238768Y-9316857D01*
D12*
X15811934Y-9498762D02*
X15811934Y-9388762D01*
X15770030Y-9388762D01*
X15759553Y-9394000D01*
X15754315Y-9399238D01*
X15749077Y-9409714D01*
X15749077Y-9425429D01*
X15754315Y-9435905D01*
X15759553Y-9441143D01*
X15770030Y-9446381D01*
X15811934Y-9446381D01*
X15623363Y-9383524D02*
X15717649Y-9524952D01*
X15586696Y-9498762D02*
X15586696Y-9388762D01*
X15523839Y-9498762D01*
X15523839Y-9388762D01*
X15471458Y-9488286D02*
X15466220Y-9493524D01*
X15471458Y-9498762D01*
X15476696Y-9493524D01*
X15471458Y-9488286D01*
X15471458Y-9498762D01*
X15471458Y-9430667D02*
X15466220Y-9435905D01*
X15471458Y-9441143D01*
X15476696Y-9435905D01*
X15471458Y-9430667D01*
X15471458Y-9441143D01*
X15282887Y-9498762D02*
X15335268Y-9498762D01*
X15335268Y-9388762D01*
X15246220Y-9498762D02*
X15246220Y-9388762D01*
X15220030Y-9388762D01*
X15204315Y-9394000D01*
X15193839Y-9404476D01*
X15188601Y-9414952D01*
X15183363Y-9435905D01*
X15183363Y-9451619D01*
X15188601Y-9472571D01*
X15193839Y-9483048D01*
X15204315Y-9493524D01*
X15220030Y-9498762D01*
X15246220Y-9498762D01*
X15136220Y-9498762D02*
X15136220Y-9388762D01*
X15110030Y-9388762D01*
X15094315Y-9394000D01*
X15083839Y-9404476D01*
X15078601Y-9414952D01*
X15073363Y-9435905D01*
X15073363Y-9451619D01*
X15078601Y-9472571D01*
X15083839Y-9483048D01*
X15094315Y-9493524D01*
X15110030Y-9498762D01*
X15136220Y-9498762D01*
X15026220Y-9498762D02*
X15026220Y-9388762D01*
X15026220Y-9441143D02*
X14963363Y-9441143D01*
X14963363Y-9498762D02*
X14963363Y-9388762D01*
X14916220Y-9399238D02*
X14910982Y-9394000D01*
X14900506Y-9388762D01*
X14874315Y-9388762D01*
X14863839Y-9394000D01*
X14858601Y-9399238D01*
X14853363Y-9409714D01*
X14853363Y-9420190D01*
X14858601Y-9435905D01*
X14921458Y-9498762D01*
X14853363Y-9498762D01*
X14785268Y-9388762D02*
X14774792Y-9388762D01*
X14764315Y-9394000D01*
X14759077Y-9399238D01*
X14753839Y-9409714D01*
X14748601Y-9430667D01*
X14748601Y-9456857D01*
X14753839Y-9477810D01*
X14759077Y-9488286D01*
X14764315Y-9493524D01*
X14774792Y-9498762D01*
X14785268Y-9498762D01*
X14795744Y-9493524D01*
X14800982Y-9488286D01*
X14806220Y-9477810D01*
X14811458Y-9456857D01*
X14811458Y-9430667D01*
X14806220Y-9409714D01*
X14800982Y-9399238D01*
X14795744Y-9394000D01*
X14785268Y-9388762D01*
X14680506Y-9388762D02*
X14670030Y-9388762D01*
X14659553Y-9394000D01*
X14654315Y-9399238D01*
X14649077Y-9409714D01*
X14643839Y-9430667D01*
X14643839Y-9456857D01*
X14649077Y-9477810D01*
X14654315Y-9488286D01*
X14659553Y-9493524D01*
X14670030Y-9498762D01*
X14680506Y-9498762D01*
X14690982Y-9493524D01*
X14696220Y-9488286D01*
X14701458Y-9477810D01*
X14706696Y-9456857D01*
X14706696Y-9430667D01*
X14701458Y-9409714D01*
X14696220Y-9399238D01*
X14690982Y-9394000D01*
X14680506Y-9388762D01*
X14607173Y-9388762D02*
X14539077Y-9388762D01*
X14575744Y-9430667D01*
X14560030Y-9430667D01*
X14549553Y-9435905D01*
X14544315Y-9441143D01*
X14539077Y-9451619D01*
X14539077Y-9477810D01*
X14544315Y-9488286D01*
X14549553Y-9493524D01*
X14560030Y-9498762D01*
X14591458Y-9498762D01*
X14601934Y-9493524D01*
X14607173Y-9488286D01*
X14497173Y-9399238D02*
X14491934Y-9394000D01*
X14481458Y-9388762D01*
X14455268Y-9388762D01*
X14444792Y-9394000D01*
X14439553Y-9399238D01*
X14434315Y-9409714D01*
X14434315Y-9420190D01*
X14439553Y-9435905D01*
X14502411Y-9498762D01*
X14434315Y-9498762D01*
X14340030Y-9425429D02*
X14340030Y-9498762D01*
X14366220Y-9383524D02*
X14392411Y-9462095D01*
X14324315Y-9462095D01*
X14287649Y-9467333D02*
X14235268Y-9467333D01*
X14298125Y-9498762D02*
X14261458Y-9388762D01*
X14224792Y-9498762D01*
D13*
X16306000Y-8549000D02*
X13256000Y-8549000D01*
X13256000Y-8549000D02*
X13256000Y-11599000D01*
X16306000Y-11599000D02*
X16306000Y-8549000D01*
X13256000Y-11599000D02*
X16306000Y-11599000D01*
D14*
X13273000Y-11316000D02*
X13273000Y-11449000D01*
X13406000Y-11316000D02*
X13273000Y-11316000D01*
X13533000Y-11316000D02*
X13533000Y-11582000D01*
X13533000Y-11582000D02*
X14047000Y-11582000D01*
X13533000Y-11316000D02*
X14047000Y-11316000D01*
X14047000Y-11316000D02*
X14047000Y-11582000D01*
X16289000Y-11582000D02*
X16289000Y-11449000D01*
X16156000Y-11582000D02*
X16289000Y-11582000D01*
X16029000Y-11582000D02*
X16029000Y-11316000D01*
X16029000Y-11316000D02*
X15515000Y-11316000D01*
X16029000Y-11582000D02*
X15515000Y-11582000D01*
X15515000Y-11582000D02*
X15515000Y-11316000D01*
X16289000Y-8832000D02*
X16289000Y-8699000D01*
X16156000Y-8832000D02*
X16289000Y-8832000D01*
X16029000Y-8832000D02*
X16029000Y-8566000D01*
X16029000Y-8566000D02*
X15515000Y-8566000D01*
X16029000Y-8832000D02*
X15515000Y-8832000D01*
X15515000Y-8832000D02*
X15515000Y-8566000D01*
X13539000Y-8566000D02*
X13406000Y-8566000D01*
X13539000Y-8699000D02*
X13539000Y-8566000D01*
X13539000Y-8826000D02*
X13273000Y-8826000D01*
X13273000Y-8826000D02*
X13273000Y-9340000D01*
X13539000Y-8826000D02*
X13539000Y-9340000D01*
X13539000Y-9340000D02*
X13273000Y-9340000D01*
%LPC*%
D15*
X13914000Y-11449000D03*
X13660000Y-11449000D03*
D16*
X13406000Y-11449000D03*
D15*
X15648000Y-11449000D03*
X15902000Y-11449000D03*
D16*
X16156000Y-11449000D03*
D15*
X15648000Y-8699000D03*
X15902000Y-8699000D03*
D16*
X16156000Y-8699000D03*
D15*
X13406000Y-9207000D03*
X13406000Y-8953000D03*
D16*
X13406000Y-8699000D03*
M02*
